<?xml version="1.0" encoding="utf-8"?>
<!-- Generator: Adobe Illustrator 25.2.1, SVG Export Plug-In . SVG Version: 6.00 Build 0)  -->
<svg version="1.1" id="Layer_1" xmlns="http://www.w3.org/2000/svg" xmlns:xlink="http://www.w3.org/1999/xlink" x="0px" y="0px"
	 viewBox="0 0 295.7 408.5" style="enable-background:new 0 0 295.7 408.5;" xml:space="preserve">
<style type="text/css">
	.st0{display:none;fill:#FEFEFE;}
	.st1{fill:#3A98C6;}
	.st2{fill:#FEFEFE;}
</style>
<g>
	<path class="st0" d="M144.7,408.5c-66,0-131.9,0-197.9,0.1c-2.6,0-3.3-0.4-3.3-3.2c0.1-134.3,0.1-268.7,0-403c0-3,0.8-3.4,3.5-3.4
		C81.2-1,215.3-1,349.5-1c2.7,0,3.5,0.4,3.5,3.4c-0.1,134.2-0.1,268.4,0,402.6c0,3.1-0.8,3.6-3.7,3.6c-66.1-0.1-132.2-0.1-198.3-0.1
		c0.9-2.8,3.9-3.2,5.7-5.1c6.2-6.4,11.7-13.5,17.3-20.3c18.7-22.7,36.5-46.1,52.9-70.5c12.1-18.1,23.5-36.7,33.7-56
		c10-18.9,18.7-38.2,25.3-58.5c6.5-20.1,10-40.6,8.4-61.7c-1.7-20.9-7.5-40.8-17.7-59.2c-7.2-13-16-24.8-26.8-35
		c-23.1-21.9-50.3-35.3-81.9-39.8c-21.3-3-42.2-1.3-62.7,4.9c-19.9,6-37.8,16-53.6,29.8C36.6,50.2,24.7,65.5,16,83.2
		C4.4,106.6-0.4,131.5,1.4,157.5c1.3,19.1,6.7,37.4,13.5,55.2c11.8,30.8,27.8,59.4,45.6,87.2c22.2,34.7,47.4,67.1,73.9,98.6
		c2.6,3.1,5.4,6.3,9.1,8.3C144.1,407.1,144.9,407.4,144.7,408.5z"/>
	<path class="st1" d="M144.7,408.5c-3.7-1.8-6.8-4.3-9.5-7.5C96,355,60,306.7,31.9,252.9c-12.6-24.2-23.5-49.1-28.8-76
		c-8.5-42.7,0.2-81.8,25.9-116.9C51.7,29.2,82.1,9.5,119.8,2.8c56.7-10.1,104.7,7.3,142,51c25.4,29.7,36.2,65.2,33.6,104.2
		c-1.5,22.9-8.7,44.5-17.6,65.4c-17.7,41.4-41.5,79.1-67.9,115.4c-15.3,21-31.4,41.3-48.2,61c-3,3.5-6.2,6.8-10.5,8.7
		C148.9,408.5,146.8,408.5,144.7,408.5z"/>
	<path class="st2" d="M147.3,222.3c-41.8-1-74.7-34.7-73.7-75.7c0.9-41.2,34.9-74.3,75.3-73.3c41.6,1.1,74.1,34.8,73.4,75.7
		C221.6,188.7,189.3,222.3,147.3,222.3z"/>
</g>
</svg>
