<?xml version="1.0" encoding="utf-8"?>
<!-- Generator: Adobe Illustrator 25.2.1, SVG Export Plug-In . SVG Version: 6.00 Build 0)  -->
<svg version="1.1" id="Capa_1" xmlns="http://www.w3.org/2000/svg" xmlns:xlink="http://www.w3.org/1999/xlink" x="0px" y="0px"
	 viewBox="0 0 800 705.9" style="enable-background:new 0 0 800 705.9;" xml:space="preserve">
<style type="text/css">
	.st0{fill:#FFFFFF;}
</style>
<g>
	<path class="st0" d="M309.5,561.1H126.7c-10,0-18.1,8.1-18.1,18.1s8.1,18.1,18.1,18.1h182.8c10,0,18.1-8.1,18.1-18.1
		S319.5,561.1,309.5,561.1z"/>
	<path class="st0" d="M582.8,561.1H400c-10,0-18.1,8.1-18.1,18.1s8.1,18.1,18.1,18.1h182.8c10,0,18.1-8.1,18.1-18.1
		S592.8,561.1,582.8,561.1z"/>
	<path class="st0" d="M582.8,108.6H126.7c-10,0-18.1,8.1-18.1,18.1s8.1,18.1,18.1,18.1h456.1c10,0,18.1-8.1,18.1-18.1
		S592.8,108.6,582.8,108.6z"/>
	<path class="st0" d="M582.8,199.1H400c-10,0-18.1,8.1-18.1,18.1c0,10,8.1,18.1,18.1,18.1h182.8c10,0,18.1-8.1,18.1-18.1
		C600.9,207.2,592.8,199.1,582.8,199.1z"/>
	<path class="st0" d="M582.8,289.6H400c-10,0-18.1,8.1-18.1,18.1s8.1,18.1,18.1,18.1h182.8c10,0,18.1-8.1,18.1-18.1
		S592.8,289.6,582.8,289.6z"/>
	<path class="st0" d="M582.8,380.1H400c-10,0-18.1,8.1-18.1,18.1c0,10,8.1,18.1,18.1,18.1h182.8c10,0,18.1-8.1,18.1-18.1
		C600.9,388.2,592.8,380.1,582.8,380.1z"/>
	<path class="st0" d="M582.8,470.6H400c-10,0-18.1,8.1-18.1,18.1s8.1,18.1,18.1,18.1h182.8c10,0,18.1-8.1,18.1-18.1
		S592.8,470.6,582.8,470.6z"/>
	<path class="st0" d="M309.5,470.6H126.7c-10,0-18.1,8.1-18.1,18.1s8.1,18.1,18.1,18.1h182.8c10,0,18.1-8.1,18.1-18.1
		S319.5,470.6,309.5,470.6z"/>
	<path class="st0" d="M309.5,199.1H126.7c-10,0-18.1,8.1-18.1,18.1V400c0,10,8.1,18.1,18.1,18.1h182.8c10,0,18.1-8.1,18.1-18.1
		V217.2C327.6,207.2,319.5,199.1,309.5,199.1z M291.4,381.9H144.8V235.3h146.6V381.9z"/>
	<path class="st0" d="M763.8,90.5h-54.3V36.2c0-20-16.2-36.2-36.2-36.2H36.2C16.2,0,0,16.2,0,36.2v579.2c0,49.9,40.6,90.5,90.5,90.5
		h619c49.9,0,90.5-40.6,90.5-90.5V126.7C800,106.7,783.8,90.5,763.8,90.5z M763.8,615.4c0,29.9-24.4,54.3-54.3,54.3h-619
		c-29.9,0-54.3-24.4-54.3-54.3V36.2h637.1v552c0,25,20.3,45.2,45.2,45.2c10,0,18.1-8.1,18.1-18.1s-8.1-18.1-18.1-18.1
		c-5,0-9-4.1-9-9V126.7h54.3V615.4z"/>
</g>
</svg>
