<?xml version="1.0" encoding="utf-8"?>
<!-- Generator: Adobe Illustrator 25.2.1, SVG Export Plug-In . SVG Version: 6.00 Build 0)  -->
<svg version="1.1" id="Layer_1" xmlns="http://www.w3.org/2000/svg" xmlns:xlink="http://www.w3.org/1999/xlink" x="0px" y="0px"
	 viewBox="0 0 408.7 287.4" style="enable-background:new 0 0 408.7 287.4;" xml:space="preserve">
<style type="text/css">
	.st0{display:none;fill:#FEFEFE;}
	.st1{fill:#3A98C6;}
	.st2{fill:#454545;}
</style>
<g>
	<path class="st0" d="M0,30.3C0,0.7,0-29-0.1-58.7c0-2.4,0.5-2.9,2.9-2.9c134.6,0.1,269.3,0.1,403.9,0c2.4,0,2.9,0.5,2.9,2.9
		c-0.1,134.6-0.1,269.3,0,403.9c0,2.4-0.5,2.9-2.9,2.9C272,348,137.4,348,2.8,348.1c-2.4,0-2.9-0.5-2.9-2.9C0,315.8,0,286.4,0,257
		c2.7,0.7,2,3.4,2.8,5.1c0.9,2.2,1.7,2.5,3.2,0.7c0.2-0.2,0.4-0.4,0.6-0.6c39.2-38.1,77.7-76.9,116.4-115.5c2.3-2.3,2.4-3.8,0.1-6.1
		c-30.2-30-60.1-60.3-90.4-90.1C24,42,15.3,33.6,6.6,25.1c-2.8-2.7-2.9-2.7-4.1,1.1C2,27.6,1.9,29.1,1,30.4
		C0.7,30.6,0.3,30.6,0,30.3z"/>
	<path class="st1" d="M0.7,30.2c0.1-3.3,1.5-6.2,2.7-9.1c1.6,0.3,2.3,1.7,3.3,2.6c39.2,39,78.4,78,117.8,116.8
		c2.6,2.6,2.4,3.9-0.1,6.4C85.1,185.8,45.9,224.8,6.7,263.7c-0.9,0.9-1.9,1.8-2.9,2.7c-2.2-2.9-2.1-6.5-3.8-9.5
		c0-74.2,0-148.5,0-222.7C1,33.1-0.1,31.5,0.7,30.2z"/>
	<path class="st2" d="M0.7,30.2c0.2,1.5,0.4,2.9-0.7,4.1c0-1.3,0-2.7,0-4C0.2,30.3,0.5,30.2,0.7,30.2z"/>
	<path class="st1" d="M20.8,3.6C26,1.1,31.3,0,36.8,0C148.5,0,260.3,0,372,0c5.5,0,10.7,1.1,15.9,3.6c-1,1.1-1.9,2.1-2.8,3
		c-51.2,50.9-102.4,101.9-153.6,152.8c-11.1,11.1-24.1,15.1-39.3,10c-5.4-1.8-9.9-5-13.9-9C126.1,108.6,73.9,56.7,21.8,4.8
		C21.5,4.6,21.3,4.2,20.8,3.6z"/>
	<path class="st1" d="M387.8,283.8c-5.3,2.5-10.5,3.5-16.1,3.5c-111.6,0-223.1,0-334.7,0c-5.6,0-11-1-16.3-3.6c1-1.1,1.9-2.1,2.8-3
		c39.3-39.1,78.7-78.1,117.9-117.3c2.3-2.3,3.4-2.5,5.8-0.1c6.6,6.7,12.8,13.9,20.3,19.7c24.6,18.8,57.2,16.4,79.8-5.7
		c4.9-4.8,9.8-9.7,14.6-14.7c1.5-1.5,2.4-1.8,4.1-0.1c40.2,40.1,80.5,80.1,120.8,120.1C387.2,282.9,387.4,283.3,387.8,283.8z"/>
	<path class="st1" d="M404.8,267.2c-3.6-3.8-6.7-7.3-10-10.6c-36.9-36.7-73.7-73.3-110.7-109.9c-2.5-2.4-2.6-3.6,0-6.1
		c39.4-39,78.7-78.1,118-117.2c0.8-0.8,1.7-1.6,2.8-2.7c2.3,4.1,3.2,8.4,3.6,12.8c0.1,1.6,0.1,3.2,0.1,4.8c0,70.2,0,140.4,0,210.6
		C408.7,255,407.9,260.8,404.8,267.2z"/>
</g>
</svg>
